{
	"asset":{
		"generator":"Khronos glTF Blender I/O v4.2.69",
		"version":"2.0"
	},
	"extensionsUsed":[
		"KHR_materials_unlit"
	],
	"scene":0,
	"scenes":[
		{
			"name":"Scene",
			"nodes":[
				8
			]
		}
	],
	"nodes":[
		{
			"mesh":0,
			"name":"circle_map_pointer_0",
			"translation":[
				0,
				3.3089399948948994e-06,
				0
			]
		},
		{
			"children":[
				0
			],
			"name":"circle",
			"translation":[
				0,
				42.5,
				1.4999998807907104
			]
		},
		{
			"mesh":1,
			"name":"pointer_map_pointer_0"
		},
		{
			"children":[
				2
			],
			"name":"pointer",
			"translation":[
				0,
				119.99999237060547,
				0
			]
		},
		{
			"children":[
				1,
				3
			],
			"name":"map_pointer"
		},
		{
			"children":[
				4
			],
			"name":"RootNode"
		},
		{
			"children":[
				5
			],
			"name":"Object_2"
		},
		{
			"children":[
				6
			],
			"name":"39cb755a51b14ccea3a67590d923cd4e.fbx",
			"rotation":[
				0.7071066498756409,
				0,
				0,
				0.70710688829422
			]
		},
		{
			"children":[
				7
			],
			"name":"Sketchfab_model",
			"rotation":[
				-0.70710688829422,
				0,
				0,
				0.7071066498756409
			],
			"scale":[
				0.004999999888241291,
				0.005000000353902578,
				0.005000000353902578
			]
		}
	],
	"animations":[
		{
			"channels":[
				{
					"sampler":0,
					"target":{
						"node":1,
						"path":"translation"
					}
				},
				{
					"sampler":1,
					"target":{
						"node":1,
						"path":"rotation"
					}
				},
				{
					"sampler":2,
					"target":{
						"node":1,
						"path":"scale"
					}
				},
				{
					"sampler":3,
					"target":{
						"node":3,
						"path":"translation"
					}
				},
				{
					"sampler":4,
					"target":{
						"node":3,
						"path":"rotation"
					}
				},
				{
					"sampler":5,
					"target":{
						"node":3,
						"path":"scale"
					}
				}
			],
			"name":"Animation",
			"samplers":[
				{
					"input":10,
					"interpolation":"STEP",
					"output":11
				},
				{
					"input":10,
					"interpolation":"LINEAR",
					"output":12
				},
				{
					"input":13,
					"interpolation":"LINEAR",
					"output":14
				},
				{
					"input":13,
					"interpolation":"LINEAR",
					"output":15
				},
				{
					"input":13,
					"interpolation":"LINEAR",
					"output":16
				},
				{
					"input":10,
					"interpolation":"STEP",
					"output":17
				}
			]
		}
	],
	"materials":[
		{
			"alphaMode":"BLEND",
			"doubleSided":true,
			"extensions":{
				"KHR_materials_unlit":{}
			},
			"name":"Material_0",
			"pbrMetallicRoughness":{
				"baseColorTexture":{
					"index":0
				},
				"metallicFactor":0,
				"roughnessFactor":0.9
			}
		}
	],
	"meshes":[
		{
			"name":"Mesh_1",
			"primitives":[
				{
					"attributes":{
						"POSITION":0,
						"NORMAL":1,
						"TEXCOORD_0":2,
						"TEXCOORD_1":3
					},
					"indices":4,
					"material":0
				}
			]
		},
		{
			"name":"Mesh_0",
			"primitives":[
				{
					"attributes":{
						"POSITION":5,
						"NORMAL":6,
						"TEXCOORD_0":7,
						"TEXCOORD_1":8
					},
					"indices":9,
					"material":0
				}
			]
		}
	],
	"textures":[
		{
			"sampler":0,
			"source":0
		}
	],
	"images":[
		{
			"mimeType":"image/png",
			"name":"Image_0",
			"uri":"Image_0.png"
		}
	],
	"accessors":[
		{
			"bufferView":0,
			"componentType":5126,
			"count":4,
			"max":[
				80,
				-42.5,
				78.5
			],
			"min":[
				-80,
				-42.5,
				-81.5
			],
			"type":"VEC3"
		},
		{
			"bufferView":1,
			"componentType":5126,
			"count":4,
			"type":"VEC3"
		},
		{
			"bufferView":2,
			"componentType":5126,
			"count":4,
			"type":"VEC2"
		},
		{
			"bufferView":3,
			"componentType":5126,
			"count":4,
			"type":"VEC2"
		},
		{
			"bufferView":4,
			"componentType":5123,
			"count":6,
			"type":"SCALAR"
		},
		{
			"bufferView":5,
			"componentType":5126,
			"count":1236,
			"max":[
				50,
				50,
				9
			],
			"min":[
				-50,
				-99.99981689453125,
				-9
			],
			"type":"VEC3"
		},
		{
			"bufferView":6,
			"componentType":5126,
			"count":1236,
			"type":"VEC3"
		},
		{
			"bufferView":7,
			"componentType":5126,
			"count":1236,
			"type":"VEC2"
		},
		{
			"bufferView":8,
			"componentType":5126,
			"count":1236,
			"type":"VEC2"
		},
		{
			"bufferView":9,
			"componentType":5123,
			"count":6864,
			"type":"SCALAR"
		},
		{
			"bufferView":10,
			"componentType":5126,
			"count":2,
			"max":[
				3.9583333333333335
			],
			"min":[
				0
			],
			"type":"SCALAR"
		},
		{
			"bufferView":11,
			"componentType":5126,
			"count":2,
			"type":"VEC3"
		},
		{
			"bufferView":12,
			"componentType":5126,
			"count":2,
			"type":"VEC4"
		},
		{
			"bufferView":13,
			"componentType":5126,
			"count":96,
			"max":[
				3.9583333333333335
			],
			"min":[
				0
			],
			"type":"SCALAR"
		},
		{
			"bufferView":14,
			"componentType":5126,
			"count":96,
			"type":"VEC3"
		},
		{
			"bufferView":15,
			"componentType":5126,
			"count":96,
			"type":"VEC3"
		},
		{
			"bufferView":16,
			"componentType":5126,
			"count":96,
			"type":"VEC4"
		},
		{
			"bufferView":17,
			"componentType":5126,
			"count":2,
			"type":"VEC3"
		}
	],
	"bufferViews":[
		{
			"buffer":0,
			"byteLength":48,
			"byteOffset":0,
			"target":34962
		},
		{
			"buffer":0,
			"byteLength":48,
			"byteOffset":48,
			"target":34962
		},
		{
			"buffer":0,
			"byteLength":32,
			"byteOffset":96,
			"target":34962
		},
		{
			"buffer":0,
			"byteLength":32,
			"byteOffset":128,
			"target":34962
		},
		{
			"buffer":0,
			"byteLength":12,
			"byteOffset":160,
			"target":34963
		},
		{
			"buffer":0,
			"byteLength":14832,
			"byteOffset":172,
			"target":34962
		},
		{
			"buffer":0,
			"byteLength":14832,
			"byteOffset":15004,
			"target":34962
		},
		{
			"buffer":0,
			"byteLength":9888,
			"byteOffset":29836,
			"target":34962
		},
		{
			"buffer":0,
			"byteLength":9888,
			"byteOffset":39724,
			"target":34962
		},
		{
			"buffer":0,
			"byteLength":13728,
			"byteOffset":49612,
			"target":34963
		},
		{
			"buffer":0,
			"byteLength":8,
			"byteOffset":63340
		},
		{
			"buffer":0,
			"byteLength":24,
			"byteOffset":63348
		},
		{
			"buffer":0,
			"byteLength":32,
			"byteOffset":63372
		},
		{
			"buffer":0,
			"byteLength":384,
			"byteOffset":63404
		},
		{
			"buffer":0,
			"byteLength":1152,
			"byteOffset":63788
		},
		{
			"buffer":0,
			"byteLength":1152,
			"byteOffset":64940
		},
		{
			"buffer":0,
			"byteLength":1536,
			"byteOffset":66092
		},
		{
			"buffer":0,
			"byteLength":24,
			"byteOffset":67628
		}
	],
	"samplers":[
		{
			"magFilter":9729,
			"minFilter":9987
		}
	],
	"buffers":[
		{
			"byteLength":67652,
			"uri":"location2.bin"
		}
	]
}
